<svg width="600" height="600" viewBox="0 0 600 600" fill="none" xmlns="http://www.w3.org/2000/svg">
<path d="M136.921 495.507L293.64 539.296C296.935 540.217 300.416 540.235 303.72 539.348L467.362 495.454C475.142 493.367 480.778 486.619 481.451 478.585L514.932 78.7134C515.865 67.5648 507.077 58 495.899 58H104.101C92.8395 58 84.0224 67.7029 85.0873 78.9245L123.043 478.901C123.79 486.778 129.308 493.379 136.921 495.507Z" fill="#DB2323"/>
<path fill-rule="evenodd" clip-rule="evenodd" d="M103.901 62.567C95.4461 62.567 88.8265 69.8508 89.626 78.2745L127.62 478.611C128.181 484.523 132.324 489.479 138.04 491.076L294.919 534.904C297.392 535.596 300.006 535.609 302.486 534.944L466.296 491.01C472.137 489.443 476.368 484.378 476.873 478.347L510.389 78.1161C511.089 69.7471 504.491 62.567 496.099 62.567H103.901ZM80.1092 79.1791C78.7767 65.1395 89.8094 53 103.901 53H496.099C510.086 53 521.083 64.9667 519.915 78.915L486.399 479.146C485.558 489.197 478.505 497.64 468.77 500.251L304.961 544.185C300.827 545.294 296.471 545.271 292.348 544.119L135.469 500.29C125.943 497.629 119.039 489.369 118.103 479.515L80.1092 79.1791Z" fill="#05060F"/>
<path d="M210.24 399C208.973 399 207.179 398.252 204.857 396.755L98.1819 310.765C95.0157 308.626 92.6939 306.595 91.2163 304.67C89.7388 302.532 89 299.966 89 296.972V287.028C89 284.034 89.7388 281.468 91.2163 279.33C92.6939 277.191 95.0157 275.053 98.1819 272.914L204.857 186.925C207.39 185.642 209.184 185 210.24 185C212.139 185 213.722 185.642 214.989 186.925C216.255 187.994 216.889 189.491 216.889 191.415V226.058C216.889 229.052 216.044 232.511 214.356 234.436C212.878 236.146 210.767 237.857 208.023 239.568L143 291.84L208.023 344.432C210.978 346.143 213.195 347.854 214.672 349.564C216.15 351.275 216.889 354.627 216.889 357.621V392.264C216.889 394.188 216.255 395.792 214.989 397.075C213.722 398.358 212.139 399 210.24 399Z" fill="white"/>
<path fill-rule="evenodd" clip-rule="evenodd" d="M198.715 403.009L92.9825 318.218C89.5652 315.89 86.4653 313.295 84.1947 310.353L84.0478 310.163L83.9105 309.965C81.1707 306.02 80 301.508 80 296.898V287.102C80 282.492 81.1707 277.98 83.9105 274.035L91.7377 279.517C90.2745 281.624 89.5429 284.152 89.5429 287.102V296.898C89.5429 299.848 90.2745 302.376 91.7377 304.483C93.2009 306.379 95.5002 308.38 98.6356 310.487L204.276 395.205C206.575 396.679 208.352 397.417 209.606 397.417C211.487 397.417 213.055 396.785 214.309 395.521C215.563 394.256 216.19 392.676 216.19 390.78V356.65C216.19 353.701 215.459 351.383 213.996 349.698C212.532 348.012 210.338 346.327 207.411 344.641L139.059 291.842L207.411 239.359C210.129 237.673 212.219 235.988 213.682 234.302C215.354 232.406 216.19 229.983 216.19 227.034V192.904C216.19 191.008 215.563 189.533 214.309 188.479C213.055 187.215 211.487 186.583 209.606 186.583C208.561 186.583 206.784 187.215 204.276 188.479L98.6356 273.197C95.5002 275.304 93.2009 277.41 91.7377 279.517L83.9105 274.035C86.2193 270.711 89.4228 267.898 92.9799 265.468L199.102 180.364L199.996 179.914C201.451 179.181 202.908 178.52 204.303 178.024C205.53 177.587 207.454 177 209.606 177C213.725 177 217.657 178.437 220.77 181.421C224.294 184.561 225.733 188.789 225.733 192.904V227.034C225.733 231.904 224.301 236.7 220.852 240.627C218.656 243.149 215.882 245.327 212.848 247.248L154.74 291.865L212.742 336.669C215.943 338.565 218.904 340.769 221.189 343.4C224.595 347.324 225.733 352.136 225.733 356.65V390.78C225.733 395.036 224.226 399.103 221.069 402.285C217.911 405.468 213.859 407 209.606 407C205.37 407 201.55 404.827 199.139 403.281L198.715 403.009Z" fill="#05060F"/>
<path d="M257.1 405.2C254.505 405.2 252.597 402.768 253.215 400.247L308.933 173.047C309.372 171.258 310.976 170 312.818 170H343.501C346.096 170 348.004 172.433 347.385 174.953L291.667 402.153C291.229 403.942 289.625 405.2 287.783 405.2H257.1Z" fill="#F8DB46"/>
<path fill-rule="evenodd" clip-rule="evenodd" d="M243.502 397.865L299.22 170.665C300.756 164.403 306.37 160 312.818 160H343.501C352.583 160 359.261 168.514 357.098 177.335L301.379 404.535C299.844 410.797 294.23 415.2 287.782 415.2H257.099C248.017 415.2 241.339 406.686 243.502 397.865ZM253.215 400.247C252.597 402.768 254.505 405.2 257.099 405.2H287.782C289.625 405.2 291.229 403.942 291.667 402.153L347.385 174.953C348.003 172.433 346.095 170 343.501 170H312.818C310.975 170 309.371 171.258 308.933 173.047L253.215 400.247Z" fill="#05060F"/>
<path d="M408.052 402.73L408.016 402.759C405.155 405.002 401.356 407 396.814 407C392.434 407 388.584 405.228 385.664 402.285C382.508 399.103 381 395.036 381 390.78V356.65C381 352.136 382.138 347.324 385.545 343.4C387.827 340.771 390.785 338.569 393.981 336.675L451.725 291.865L393.879 247.244C390.902 245.365 388.215 243.321 385.978 241.066L385.558 240.644L385.195 240.172C382.16 236.24 381 231.609 381 227.034V192.904C381 188.79 382.439 184.564 385.96 181.424C388.843 178.655 392.58 177 396.814 177C400.813 177 404.373 178.641 407.067 180.27L407.601 180.592L513.747 265.464C517.307 267.895 520.513 270.709 522.823 274.035C525.563 277.98 526.733 282.492 526.733 287.102V296.898C526.733 301.508 525.563 306.02 522.823 309.965L522.686 310.163L522.539 310.353C520.267 313.297 517.165 315.893 513.745 318.222L408.052 402.73Z" fill="#05060F"/>
<path d="M396.177 399C394.488 399 393.011 398.358 391.744 397.075C390.478 395.792 389.845 394.188 389.845 392.264V357.621C389.845 354.627 390.583 351.275 392.061 349.564C393.539 347.854 395.755 346.143 398.71 344.432L466.416 291.84L398.71 239.568C395.966 237.857 393.75 236.146 392.061 234.436C390.583 232.511 389.845 229.052 389.845 226.058V191.415C389.845 189.491 390.478 187.994 391.744 186.925C393.011 185.642 394.488 185 396.177 185C397.655 185 399.449 185.642 401.56 186.925L508.551 272.914C511.718 275.053 514.039 277.191 515.517 279.33C516.995 281.468 517.733 284.034 517.733 287.028V296.972C517.733 299.966 516.995 302.532 515.517 304.67C514.039 306.595 511.718 308.626 508.551 310.765L401.56 396.755C399.66 398.252 397.866 399 396.177 399Z" fill="white"/>
</svg>
